<svg viewBox="0 0 24 24" fill="none" xmlns="http://www.w3.org/2000/svg">
<path d="M9.1475 2C8.3812 2.22141 7.64291 2.53023 6.94718 2.92036L7.58716 6.11621L6.11621 7.58716L2.91223 6.94718C2.52673 7.64483 2.22269 8.38448 2.0061 9.15156L4.71841 10.9598V13.0402L2 14.8525C2.22141 15.6188 2.53023 16.3571 2.92036 17.0528L6.11621 16.4128L7.58716 17.8838L6.94718 21.0878C7.64483 21.4733 8.38448 21.7773 9.15156 21.9939L10.9598 19.2816H13.0402L14.8525 22C15.6188 21.7786 16.3571 21.4698 17.0528 21.0796L16.4128 17.8838L17.8838 16.4128L21.0878 17.0528C21.4733 16.3552 21.7773 15.6155 21.9939 14.8484L19.2816 13.0402V10.9598L22 9.1475C21.7786 8.3812 21.4698 7.64291 21.0796 6.94718L17.8838 7.58716L16.4128 6.11621L17.0528 2.91223C16.3552 2.52673 15.6155 2.22269 14.8484 2.00609L13.0402 4.71841H10.9598L9.1475 2Z" stroke="black"/>
<path d="M12 16C14.2091 16 16 14.2091 16 12C16 9.79086 14.2091 8 12 8C9.79086 8 8 9.79086 8 12C8 14.2091 9.79086 16 12 16Z" stroke="black"/>
</svg>
